<svg xmlns="http://www.w3.org/2000/svg" viewBox="0 0 32 32" fill="none">
  <rect width="32" height="32" rx="8" fill="#0B1E13"/>
  <path
    d="M16 28V12"
    stroke="#D4B36A"
    stroke-width="1.6"
    stroke-linecap="round"
  />
  <ellipse cx="16" cy="8.2" rx="2.1" ry="3.2" fill="#E8C98A"/>
  <ellipse cx="16" cy="11.5" rx="2.2" ry="3.1" fill="#D4B36A"/>
  <ellipse cx="16" cy="14.8" rx="2.1" ry="3" fill="#C9A55A"/>
  <ellipse cx="12.2" cy="10.2" rx="1.7" ry="2.6" fill="#E8C98A" transform="rotate(-28 12.2 10.2)"/>
  <ellipse cx="11.8" cy="13.6" rx="1.7" ry="2.6" fill="#D4B36A" transform="rotate(-28 11.8 13.6)"/>
  <ellipse cx="12.2" cy="17" rx="1.6" ry="2.5" fill="#C9A55A" transform="rotate(-28 12.2 17)"/>
  <ellipse cx="19.8" cy="10.2" rx="1.7" ry="2.6" fill="#E8C98A" transform="rotate(28 19.8 10.2)"/>
  <ellipse cx="20.2" cy="13.6" rx="1.7" ry="2.6" fill="#D4B36A" transform="rotate(28 20.2 13.6)"/>
  <ellipse cx="19.8" cy="17" rx="1.6" ry="2.5" fill="#C9A55A" transform="rotate(28 19.8 17)"/>
  <path
    d="M16 20c-3.2 0.4-5.2 2.2-5.8 4.6 2.6-0.6 4.6-0.2 5.8 1.4 1.2-1.6 3.2-2 5.8-1.4-0.6-2.4-2.6-4.2-5.8-4.6Z"
    fill="#139339"
    opacity="0.9"
  />
</svg>
